<svg xmlns="http://www.w3.org/2000/svg" version="1.1" xmlns:xlink="http://www.w3.org/1999/xlink" xmlns:svgjs="http://svgjs.dev/svgjs" width="1000" height="1125" viewBox="0 0 1000 1125"><g transform="matrix(1,0,0,1,1.7053025658242404e-13,0)"><svg viewBox="0 0 320 360" data-background-color="#ffffff" preserveAspectRatio="xMidYMid meet" height="1125" width="1000" xmlns="http://www.w3.org/2000/svg" xmlns:xlink="http://www.w3.org/1999/xlink"><defs></defs><g id="tight-bounds" transform="matrix(1,0,0,1,-5.684341886080802e-14,0)"><svg viewBox="0 0 320 360" height="360" width="320"><g><svg></svg></g><g><svg viewBox="0 0 320 360" height="360" width="320"><g><path d="M85.508 32.884c0-1.117 0.558-2.233 1.675-2.233 1.117 0 2.233 0.558 2.234 2.233 0.558 0 1.675 0 2.233-0.558 2.233 0 4.467-0.558 6.141 0 1.675 0.558 2.792 0.558 4.467 1.117 1.675 0.558 2.792 0 3.908-0.559 2.233-0.558 3.908-1.675 6.141-2.233 1.117-0.558 1.675-0.558 2.792-0.558 1.117-0.558 2.233-0.558 3.908-1.117 2.792-0.558 5.583-1.117 7.817-2.233 2.233-1.117 4.467-1.117 6.699-1.675 1.117 0 1.675-0.558 2.792-1.117 0.558 0 0.558-0.558 1.116-1.116 1.117-0.558 1.675-1.117 2.792-0.559 0.558 0.558 1.675 0.558 2.233 0h0.559c3.35 0 6.7-0.558 10.608 0 0.558 0 1.117 0 1.116 0 1.675-1.117 3.908-1.117 6.142-1.116 0.558 0 1.675 0 2.233 0h0.558c2.233 0 4.467 0 6.142 0.558 1.675 0 2.792 0.558 4.466 1.117 1.675 0 2.792 0 4.467 0.558 1.117 0 2.233 0 3.35 0 0.558 0 1.117 0 1.116 0 2.233 0.558 4.467 0.558 6.7 0.558 1.675 0.558 3.35 1.117 5.583 1.117 0.558 0 1.117 0 1.675 0 0.558 0 1.117 0.558 1.675 0.558l0.558 0.559c2.233 0 3.908 1.117 6.142 1.116 0.558 0 1.675 0 2.233 0.559 1.675 1.117 3.908 1.675 6.141 1.675 1.117 0 1.675 0.558 2.234 1.116 1.675 0.558 2.792 1.117 4.466 1.675 1.117 0.558 2.233 0 3.35 0.558 1.675 0.558 3.908 1.117 5.583 2.792 1.117 1.117 2.233 1.117 3.908 2.233 0.558 0 1.117 0.558 1.675 1.117 1.675 1.117 3.35 2.233 5.025 2.791 0.558 0 1.117 0.558 1.675 0.559 1.675 1.117 3.35 2.792 5.583 3.908 1.117 0.558 1.675 1.117 2.792 1.675h0.558c1.675 1.675 3.908 2.792 5.583 4.466 1.675 1.675 2.792 2.792 5.025 3.909 0 0 0 0 0 0.558 0.558 1.117 1.117 1.675 2.233 2.233 1.117 0.558 1.675 1.117 2.234 1.675 1.675 1.117 3.35 2.233 4.466 3.35 0.558 0.558 1.117 1.117 2.233 2.233 0.558 0.558 1.117 1.117 1.675 1.117 2.233 0.558 3.35 2.233 5.025 3.908 1.117 1.117 2.792 2.792 3.908 3.908 0.558 0.558 1.117 1.675 1.675 2.792 1.117 3.35 2.792 6.7 4.467 9.491 0 0 0 0.558 0.558 1.117v0.558c1.117 1.117 1.675 2.792 2.792 3.908 0.558 0.558 0.558 1.117 1.116 1.675 1.117 1.675 1.675 3.908 2.792 5.583 1.675 2.792 2.792 5.583 3.908 8.375v0.558c0.558 1.117 1.117 2.233 1.675 3.908 0 1.117 1.117 2.233 1.675 3.909 0.558 2.792 2.233 5.583 2.791 8.933 0 0.558 0.558 1.117 0.559 2.233 0.558 1.675 1.117 3.35 1.675 5.025 0 0.558 0.558 1.117 1.116 1.675 1.117 1.117 1.117 2.233 1.117 3.35-0.558 2.233 0 4.467 0.558 6.699 0 0.558 0 1.117 0 2.234 0.558 2.233 1.117 5.025 1.117 7.258 0 0.558 0 1.675 0 2.233 0 1.675 0.558 3.35 1.675 5.025 0 0.558 0.558 0.558 0.558 0.558 0.558 0.558 1.117 1.675 1.675 2.233 0.558 0.558 0.558 0.558 1.117 1.117 1.117 1.117 1.675 2.233 1.675 3.908 0 0.558-0.558 1.675-0.559 2.233 0 0.558 0 1.675 0.559 2.234 0.558 0.558 0.558 1.117 0.558 1.675 0 0.558-0.558 1.117-1.117 1.116v0c-0.558 1.675-2.792 2.233-3.35 3.908-0.558 2.233-1.117 4.467-1.674 6.7-0.558 1.675-0.558 2.792-0.559 4.467 0 1.675-0.558 2.792-0.558 4.466-0.558 2.233-1.117 4.467-1.675 6.7 0 1.117-0.558 2.233-0.558 3.35 0.558 0.558 1.117 1.117 1.675 1.116 1.117 1.117 2.233 2.233 3.349 3.35 0.558 0.558 0.558 1.117 0 1.117-0.558 0.558-1.117 0.558-1.674 0.558-0.558-0.558-1.675-1.117-2.234-1.116-0.558-0.558-1.675-1.117-2.791-0.559 0 1.117-0.558 2.233-0.559 2.792-0.558 1.117-1.117 2.792-1.116 3.908-0.558 2.233-1.675 3.908-2.233 6.142-1.117 2.792-2.233 5.025-3.35 7.258-0.558 1.117-1.117 2.233-1.675 3.35v0c0 1.675-1.675 3.35-2.234 5.024-1.117 2.233-2.233 4.467-3.349 7.258-0.558 1.117-1.117 2.233-1.675 2.792-1.117 2.792-2.233 5.025-3.909 7.258-1.117 1.675-2.233 2.792-3.349 3.35-1.117 1.117-2.233 2.233-3.35 3.35-0.558 0.558-1.117 1.117-1.675 1.675-0.558 0.558-0.558 0.558-1.117 1.116-1.117 1.675-2.792 2.792-3.908 4.467-1.117 1.117-1.675 2.233-3.35 3.35-1.117 1.117-2.233 2.792-3.908 3.35-0.558 0.558-1.117 1.675-1.675 2.233-0.558 0.558-1.117 1.675-1.675 2.233 0 1.117 0.558 2.233 0.558 2.792 0 1.675-1.675 2.233-2.791 1.116-1.675-1.117-1.675-1.117-3.35 0-1.675 1.117-3.35 2.792-5.583 3.35-0.558 0-0.558 0.558-1.117 0.559-1.117 0.558-1.675 1.675-2.792 2.233-1.117 1.117-2.792 1.675-3.908 2.791-0.558 0.558-1.117 0.558-1.675 1.117-1.675 1.117-3.35 1.675-5.024 3.35-0.558 0.558-1.117 0.558-1.675 1.117 0 0.558 0 0.558 0 1.116 0 1.117-1.117 2.233-2.792 1.675-1.675-0.558-2.792 0-4.466 0-1.675 0.558-3.35 1.675-5.025 2.233-0.558 0-1.117 0.558-1.675 1.117-1.675 1.117-3.35 1.675-5.025 2.233-1.117 0-2.233 1.117-3.35 1.117-0.558 0-1.117 0.558-1.675 0.558h-0.558c-2.233 1.675-4.467 2.792-6.7 4.467-0.558 0-0.558 0.558-1.117 1.116-0.558 1.117-1.117 1.675-2.233 1.675-2.792 0-3.908 2.233-3.35 4.467 0 0.558 0.558 1.117 0.559 1.675 0.558 1.117 0 2.233-0.559 2.791-0.558 0.558-2.233 0.558-2.791-0.558-1.117-1.117-1.675-2.233-2.234-3.908-0.558-1.117-1.675-2.233-2.791-2.792-1.117-0.558-2.233-0.558-3.35 0-0.558 0-0.558 0.558-1.117 0.558-1.117 1.117-2.792 1.675-4.466 1.117-0.558 0-1.675 0-1.675 0.558-0.558 0.558-0.558 1.675 0 2.234 1.117 1.117 0.558 2.233 0.558 3.908 0 2.233-1.675 3.35-3.908 2.233-0.558-0.558-1.117-0.558-1.675-1.117-0.558 0-0.558-0.558-0.558-1.116-0.558-0.558-0.558-1.675-1.117-2.792-1.117 0.558-2.233 0.558-3.35 1.117-0.558 0-1.117 0.558-1.675 0.558-1.675 0-2.233 0-2.791-1.675-0.558-1.675-1.675-1.675-2.792-2.233-2.233-0.558-5.025-0.558-7.258-1.675h-0.558c-2.233-1.675-4.467-1.675-7.258-1.675-1.675 0-3.35 0.558-5.025 0.558-1.675 0-2.792 0.558-3.908 1.675-0.558 0.558-1.117 1.117-1.675 1.117-0.558-0.558-0.558-1.117-1.117-1.675v-0.558c0-0.558-0.558-1.117-1.116-0.559-1.117 0.558-2.233-0.558-3.35-1.116-0.558-0.558-1.675-1.675-1.675-2.792-0.558-0.558-1.117-1.117-1.675-1.116-1.117 0-2.792-0.558-3.908-0.559-0.558 0-1.117 0-1.117-0.558-0.558-0.558-1.117-0.558-2.233-0.558-0.558 0-0.558-0.558-1.117-0.559 1.117 1.117 1.675 2.233 2.233 3.35 0 0.558 0.558 0.558 0.559 1.117 0.558 1.117 0 1.675-1.675 1.675-1.117 0-1.117 0-1.675 0.558 0 1.117 0 1.675 0 2.792 0 0.558 0 1.117-1.117 1.675 0 0-0.558 0-0.558 0.558-0.558 0.558-0.558 1.117 0 1.675 1.675 1.117 2.792 1.675 4.466 2.233 1.675 0 1.675 1.117 2.234 2.233 0.558 1.117 0 1.675-0.559 2.792-1.117 1.117-2.233 2.233-3.35 3.35-1.675 0.558-2.792 2.233-4.466 2.233-1.117 0-2.233-0.558-2.792-1.675-0.558-2.792-0.558-5.025 0.559-7.816 0-0.558 0.558-1.117 0-1.675-5.025 0-5.025-1.117-5.025-1.675 0-1.117 0.558-1.675 0.558-2.792 0.558-1.117 0-1.675-1.675-2.233-0.558 0-1.117 0-1.675 0-0.558 0-0.558-0.558-1.675-0.558 1.117-0.558 1.675-0.558 2.792-1.117-0.558-2.233-1.117-3.908-2.792-5.025-0.558-0.558-1.117-1.117-1.116-2.233 0-1.675-1.117-2.792-1.675-3.908-1.117-1.675-3.35-2.233-5.025-2.233-1.675-0.558-2.792-0.558-4.467-1.117-1.675-0.558-3.35-2.233-5.024-2.792-0.558-0.558-1.117-1.117-2.234-1.674-2.233-1.117-3.908-2.792-5.583-4.467-1.117-0.558-1.675-1.675-2.791-2.233-1.117-1.117-1.675-2.233-2.792-2.792-1.117-1.117-2.233-2.233-3.908-3.35-1.675-1.117-2.792-2.792-4.467-4.466-1.117-1.675-2.792-2.792-4.466-3.908-0.558 0-1.117 0-1.675 0-0.558 0-1.117 0.558-1.675 0.558-1.675 0.558-2.792 1.675-4.467 2.233 0.558-0.558 0.558-0.558 0-1.675-0.558-0.558-1.117-1.117-1.674-1.116-1.117 0-2.233 0-3.35 0-2.233 0-4.467 0.558-6.7 0.558-1.675 0-3.908 0.558-5.583 1.117 0.558 1.117 0.558 1.675 1.116 2.791-1.117 0.558-2.233 0.558-3.35 0.558-0.558 0-1.675 0.558-2.233 1.117-0.558 0-0.558 0.558-1.116 0-1.117-0.558-2.233 0-3.35 0.558h-0.559c0 0 0-0.558 0.559-0.558 0.558-0.558 1.117-1.117 1.675-1.675 0.558-0.558 1.117-0.558 2.233-1.117-0.558-0.558-0.558-1.117-0.558-1.116-0.558-0.558-1.117-0.558-1.675 0-0.558 0.558-1.117 1.117-1.675 1.675-0.558 0.558-1.117 0.558-1.675 0-0.558-0.558-0.558-1.117 0-1.675 0-0.558 0.558-1.117 1.116-1.675 0.558-0.558 0.558-1.117 1.117-1.675-1.117-1.117-1.675-2.233-2.792-2.792-1.675-1.117-3.35-2.792-4.466-4.466-1.117-2.233-2.792-3.908-5.025-5.025-0.558-0.558-1.117-1.117-1.675-1.675-0.558-0.558-0.558-0.558-1.116-1.117-1.675 0.558-2.792 1.675-4.467 2.234-0.558 0-0.558 0.558-1.117 1.116-0.558 1.117-1.675 1.117-2.791 1.117-0.558 0-1.117-0.558-0.558-1.117 0.558-1.117 1.117-2.233 2.791-1.675 0 0 0.558 0 0.558-0.558 1.117-1.117 2.233-2.792 3.909-3.908-0.558-1.675-1.675-2.792-2.234-3.908-0.558-0.558-0.558-1.117-0.558-2.234 0-0.558 0-0.558-0.558-1.116 0 0-0.558 0-1.117 0.558-0.558 0.558-1.675 1.117-2.791 0 0-0.558 0-1.117 0.558-1.675l0.558-0.558c1.675-0.558 1.675-2.233 1.675-3.908v-0.559c-0.558-1.117-0.558-1.675 0.558-2.791 1.675-1.117 3.35-3.35 3.909-5.025 0.558-1.117 1.675-1.675 2.791-2.792 1.117-1.117 2.233-2.233 2.792-3.908h0.558c2.233 0.558 2.792-1.117 3.908-2.791 0-0.558 0-1.117 0.559-1.117 1.117-1.117 1.117-2.233 0.558-3.908 0-0.558-0.558-1.675-0.558-2.233 0-0.558 0-0.558-0.559-1.117-1.675-1.117-1.675-2.233 0-3.35 1.117-0.558 1.117-1.675 1.675-2.233 0.558-1.117 0.558-2.233 0.559-3.908-0.558-1.675-0.558-3.908-1.117-5.583-0.558-2.233-1.117-5.025-1.675-7.259 0-0.558 0-0.558 0-1.116 0-1.675 0-2.792-0.558-4.467-0.558-0.558-0.558-1.675-0.559-2.233-0.558-1.675-1.117-2.792-2.791-3.35-1.675-1.117-3.908-1.675-5.583-2.791-0.558-0.558-1.117 0-1.675 0.558-0.558 1.117-1.675 2.233-2.234 3.35-0.558 0.558-1.117 1.675-1.675 2.791-1.117 1.117-3.35 2.233-5.024 0.559-0.558-1.117-1.117-1.675 0-2.792 1.117-1.675 2.233-3.35 3.908-4.466 0.558-0.558 1.117-1.675 1.675-2.234 0.558-1.117 0.558-2.233 0.558-3.35-0.558-2.233-1.117-4.467-1.117-7.258 0-2.792 0-5.025 0.559-7.816 0.558-1.117 0.558-2.792 1.116-3.908 0-0.558 0.558-1.675 1.117-2.233 1.117-1.117 2.233-2.233 2.792-3.909 0.558-1.675 1.675-3.35 1.675-5.024 0-0.558 0.558-1.117 0.558-1.675 0-0.558 0.558-1.675 0.558-2.234-0.558-1.675 0-2.792 0.558-3.908 0.558-1.117 1.117-2.792 1.675-3.908 1.117-2.233 1.117-5.025 3.35-7.258 0.558-1.117 1.117-2.233 1.675-3.35 0.558-2.233 1.675-3.908 2.792-5.583 0.558-0.558 0.558-0.558 0.558-1.117 0.558-1.675 1.675-3.35 2.792-5.025 1.117-1.675 1.117-3.35 1.675-5.024 0-0.558 0-1.117 0.558-1.675 1.675-1.675 1.117-3.908 0.558-6.142-1.117-2.792-1.675-5.583-1.116-8.374 0-0.558 0-1.117 0.558-1.117 0.558-1.117 0.558-1.675 1.117-2.792v-0.558c1.117-1.117 2.233-2.792 3.908-3.35 2.233-1.117 4.467-1.675 7.258-2.233 2.233 0 4.467-1.117 6.141-3.35 0-0.558 0.558-0.558 1.117-1.117l0.558-0.558c0.558-1.117 1.117-1.675 1.675-2.233 1.117-1.117 2.233-2.792 3.35-3.908 1.117-1.117 2.233-2.792 3.908-4.467l0.559-0.558c1.117-1.117 2.233-2.233 3.349-2.792 1.117-1.117 2.233-2.233 3.35-3.35 1.117-1.117 1.675-2.233 2.792-3.35 1.117-0.558 2.233-1.675 3.35-2.791 1.117-1.117 2.233-2.233 2.791-2.792 1.117-1.117 2.792-2.233 3.909-2.791 1.117-0.558 2.233-1.117 2.791-2.792 0.558-1.675 1.117-2.792 1.675-4.466 0-1.117 0.558-2.233 1.117-3.35 0.558 0 1.117 0 2.233-0.558-0.558-0.558-1.117-0.558-1.117-1.117 0-0.558 0.558-1.117 0.559-1.117 0-0.558 0.558-1.117 0.558-1.675 0 0 0.558 0 0.558-0.558 0 0 0.558 0 0.559-0.558-1.117 0.558-1.675 0-2.234-0.559 0.558 0.558 1.117 0.558 2.234 1.117 0 0 0.558 0 0.558-0.558 0-0.558 0-1.117 0-1.117 0 0-0.558 0-1.117 0-0.558 0-1.117 0.558-1.675 0.558zM182.097 295.292c0-0.558-0.558-0.558-0.559-1.117-0.558-1.117 0-1.675 0.559-2.233 0.558-0.558 1.117-0.558 2.233-0.558 1.117 0.558 1.675 1.117 1.675 2.233 0 0.558 0 1.675 0 2.233 0.558 2.233 0.558 2.233 2.791 2.233 1.117 0 2.233 0 3.35 0 2.233-0.558 4.467-1.675 6.7-2.233 2.233-0.558 4.467-1.117 6.7-1.675 0.558 0 1.117 0 2.233 0 2.233 0.558 3.908 0 5.583-1.117 0.558-0.558 1.675-0.558 2.233-1.116 1.117-0.558 2.233-0.558 3.35-1.117 2.792-1.675 5.583-2.792 7.817-4.466 1.675-1.117 3.35-2.233 5.024-3.35 1.675-1.117 3.35-2.233 5.025-3.35 1.117-0.558 2.792-1.675 3.908-2.792 2.233-1.675 3.908-3.35 6.142-4.466 1.117-0.558 1.675-1.117 2.233-1.675 1.117-0.558 1.675-1.675 2.792-2.233 0.558-0.558 1.117-1.117 2.233-1.675 0.558-0.558 0.558-0.558 0.558-1.117 1.675-1.117 3.35-3.35 4.467-5.025 1.117-1.117 2.233-2.233 3.35-3.908 1.675-1.675 2.792-3.908 4.466-6.141 1.117-1.117 2.233-2.792 2.792-3.909 1.117-2.233 2.233-4.467 3.908-6.141v-0.558c1.117-2.233 2.233-4.467 3.35-6.7 1.675-2.792 2.792-6.141 4.466-8.933 0.558-1.117 1.117-2.233 1.117-3.35 1.117-2.233 1.675-4.467 2.233-6.7 0-0.558 0-0.558 0.559-1.116 1.675-3.35 2.792-6.7 3.349-10.608 0.558-2.233 1.117-4.467 1.675-6.7 1.117-3.35 1.117-6.141 1.675-9.491 0.558-2.233 0.558-5.025 0.559-7.258 0.558-3.35 0.558-7.258 0-10.608 0-2.792-0.558-6.141-0.559-8.933 0-2.792-0.558-5.025-1.116-7.817-0.558-2.792-1.117-5.025-1.675-7.816-1.117-2.233-1.675-4.467-2.234-7.258-0.558-2.233-1.675-3.908-1.674-6.142 0-1.675-0.558-3.35-2.234-3.908-1.675-0.558-2.792-1.117-4.466-2.233-3.35-2.233-5.025-5.025-4.467-8.375 0-1.675 0.558-3.908 1.117-5.583 0.558-1.675 1.117-3.35 0-4.467-0.558-1.675-1.675-2.792-2.233-3.908-1.117-1.675-1.675-2.792-2.792-3.908-1.117-2.233-2.233-4.467-3.908-6.141-2.233-2.792-3.908-5.583-6.7-7.817l-0.558-0.558c-1.675-2.233-3.35-4.467-5.583-6.142-1.117-1.117-2.233-2.233-3.35-2.791-0.558-0.558-1.117-1.117-2.233-1.675-1.675-1.117-3.35-1.675-4.467-2.792-1.675-1.675-3.908-2.792-5.583-3.908 0 0-0.558 0-0.558-0.558-2.233-1.117-3.908-1.675-6.142-2.792-2.233-1.117-4.467-1.675-6.7-1.675-0.558 0-0.558 0-1.116 0-0.558-0.558-1.675-0.558-2.233-0.558-0.558 0-0.558 0-1.117 0-1.117-0.558-2.792 0-3.908 0-2.233 0.558-4.467 0.558-6.7-0.558-2.792-1.117-5.025-2.233-7.258-3.35-1.675-1.117-2.792-2.233-4.467-3.35-3.35-2.792-6.7-6.141-10.608-8.933 0.558-2.792-0.558-3.35-2.791-3.35-1.117 0-2.233 0.558-3.35 1.117-0.558 0.558-0.558 0.558-1.117 1.116-1.675 1.117-2.792 2.792-4.466 3.909-2.792 1.675-3.908 1.117-6.142 0-0.558-0.558-1.117-1.117-1.675-1.675-1.117-1.117-2.233-2.792-2.791-3.909-1.117-2.233-3.35-2.233-5.583-2.233-1.117 0-2.792 0.558-3.908 0.558-2.233 0-4.467 1.117-5.584 2.792-1.117 1.675-2.233 3.35-3.908 5.025-0.558 0.558-1.675 1.117-2.233 2.233-1.117 1.117-2.233 1.117-3.35 0-0.558-0.558-1.117-0.558-1.675-1.117-0.558 0.558-1.117 1.117-1.117 1.675-0.558 1.117-1.117 2.233-1.674 3.909-0.558 1.675-1.675 3.35-2.792 4.466-0.558 0.558-0.558 0.558-1.117 1.117-0.558 1.117-2.233 1.675-3.35 1.675-1.117 1.117-2.233 2.792-2.791 3.908-0.558 1.117-1.117 2.233-1.675 3.908-0.558 0.558-0.558 1.675-1.117 2.233-0.558 1.117-0.558 1.675-0.558 2.792 0.558 1.675-0.558 2.233-2.233 2.791-1.117 0-1.117 0-1.675 1.117 0 1.675 0.558 2.792 1.116 4.467 0.558 0.558 1.117 1.675 1.117 2.233 0 1.117 0.558 1.675 1.675 2.233 0.558 0.558 1.117 1.117 1.675 1.117 0.558 0 0.558 0.558 1.117 0.558 0.558 0.558 1.117 0 1.116-0.558 0.558-1.675 1.117-3.35 1.117-5.025 0.558-2.233 0.558-3.908 1.116-6.142 0.558-1.117 1.117-1.675 1.675-2.233 0 0 0.558 0 1.117 0v0.559c-0.558 2.792-1.675 6.141-2.233 8.933-0.558 1.117-0.558 2.233-1.117 3.349 0 0.558-0.558 1.117-1.116 1.117-1.117 0.558-2.233 1.117-3.35 1.117-0.558 0-1.117 0-1.675 0-1.117-0.558-2.233-1.675-3.35-2.234-0.558-0.558-1.117-1.117-1.675-1.674-0.558-1.117-1.117-2.233-1.675-3.35-0.558-1.117-1.117-1.675-2.233-2.234-0.558-0.558-1.117-0.558-1.675-1.116-1.117-1.117-2.233-1.675-3.908-1.675-0.558 0-1.675 0-2.234 0-0.558 0-1.675 0.558-2.233 1.116-1.117 0.558-1.675 0.558-2.791 0-2.792-1.117-5.583-0.558-8.375 0.559-1.117 0.558-2.233 1.117-3.35 1.116-2.792 0-5.025 0-7.816 0-2.792 0-5.025-0.558-7.817-1.116-1.117 0-2.233 0-3.35 0-2.233 0.558-2.792 2.233-2.233 4.466 0.558 2.233 1.117 5.025 1.117 7.258 0 1.675 0 3.35 0 5.025 0 1.117 0 1.675 0 2.792 0 1.675-0.558 3.35-0.559 5.025-0.558 3.35-2.233 6.141-4.466 8.374-1.675 1.675-3.908 3.35-6.142 3.908-1.117 0.558-2.233 1.117-3.908 1.675-2.792 1.117-5.025 3.35-6.7 6.142-0.558 1.117-1.117 2.233-1.674 3.35-1.117 1.675-1.675 2.792-2.792 4.466-0.558 1.117-1.675 2.233-2.233 3.35-0.558 1.117-1.675 1.675-1.675 2.792-1.117 2.233-1.675 4.467-2.792 6.699-0.558 1.117-0.558 2.792-1.116 3.909-1.117 2.233-1.117 4.467-1.117 7.258 0 0.558 0 1.117 0 2.233 0 2.792-0.558 6.141-0.558 8.933 0 2.792 0 5.583 0.558 8.375 0 1.117 0 2.792 0 3.908 0 2.233 0.558 5.025 0.558 7.258 0 2.233 0 5.025 1.117 7.258v0.558c0.558 2.233 0.558 4.467 1.116 6.7 0 0.558 0 1.117 0.559 1.675 1.117 3.35 1.675 6.141 2.791 9.491 0.558 2.233 1.675 4.467 2.234 6.7 0.558 2.233 2.792 4.467 3.349 7.258v0c1.675 3.35 3.35 6.7 5.584 10.05 0.558 1.117 1.675 2.233 2.233 3.35 1.117 1.675 1.675 3.35 2.791 4.466 0.558 1.117 1.675 2.233 2.234 2.792 0.558 1.117 1.117 2.233 2.233 3.35 1.117 1.117 2.233 2.792 3.35 3.908 1.675 2.792 3.908 5.025 6.141 6.7 1.117 1.117 2.233 1.675 3.35 2.791 0.558 0.558 1.117 0.558 1.117 1.117 0.558 0.558 1.117 1.117 2.233 1.675 4.467 2.233 7.816 5.583 11.725 8.933 1.675 1.675 3.35 3.35 5.583 4.466 2.233 1.675 3.908 3.35 6.7 3.908 0 0 0.558 0 0.558 0.559 1.117 1.117 2.792 1.675 3.908 2.233 2.233 1.117 5.025 2.233 7.258 3.35 0.558 0.558 1.675 0.558 2.233 1.117 1.675 0.558 3.35 1.117 5.025 1.674 1.675 0.558 2.792 1.117 4.467 1.117h0.558c1.117 0.558 1.675 0.558 2.792 0 0.558 0 1.117 0 1.116 0.558 0 0.558 0.558 0.558 1.117 0.559 0.558 0 1.117 0 2.233 0 0.558-0.558 0.558-1.117 1.117-2.234 0.558 0.558 1.117 0.558 1.116 0.559 0.558 1.117 1.675 1.117 2.792 1.116h0.558c1.117 0 1.675 0 2.233-0.558 0-0.558 1.117-0.558 1.675-0.558 1.675 0.558 3.35 0.558 5.025 1.116 1.117 0.558 2.792 0.558 3.35-0.558 0.558-0.558 1.117-1.117 2.233-0.558 1.117 0.558 1.675 0.558 2.792 0 0.558 0 1.117 0 1.117 0 1.675 0.558 2.792 0.558 4.466 1.116 2.233 0.558 2.233 0.558 3.908-1.116 0.558-0.558 1.675-0.558 2.233 0 0.558 1.117 0.558 1.675 0.559 2.791 0.558 0 0.558 0 1.116-0.558 0-1.117 0.558-1.117 1.675-1.675 0.558 0.558 0.558 0.558 1.117 0.558 1.117 1.117 1.675 1.117 2.233-0.558 0-0.558 0-1.117 0.559-1.116 0.558 0 1.117 0.558 1.116 0.558 0.558 1.117 1.675 1.675 2.233 2.791 1.117 1.117 2.792 1.117 3.35 0 0.558-0.558 1.117-0.558 1.675-0.558 0-0.558 0-1.117 0-1.675 1.675 1.117 1.117 1.117 0.559 1.117zM89.417 34.559c1.675 0.558 2.792 0.558 3.349-0.558-1.117 0.558-2.233-0.558-3.349 0.558z" fill="#50a060" data-fill-palette-color="tertiary"></path></g><g transform="matrix(1,0,0,1,64,124.2426238813132)"><svg viewBox="0 0 192 111.51475223737361" height="111.51475223737361" width="192"><g><svg viewBox="0 0 192 111.51475223737361" height="111.51475223737361" width="192"><g><svg viewBox="0 0 192 111.51475223737361" height="111.51475223737361" width="192"><g><svg viewBox="0 0 192 111.51475223737361" height="111.51475223737361" width="192"><g><svg viewBox="0 0 192 111.51475223737361" height="111.51475223737361" width="192"><g><svg viewBox="0 0 192 73.99693721286368" height="73.99693721286368" width="192"><g transform="matrix(1,0,0,1,0,0)"><svg width="192" viewBox="4.550000190734863 -37 97.93999481201172 37.75" height="73.99693721286368" data-palette-color="#50a060"><path d="M5.05 0.2L4.55-0.4Q6.1-0.55 6.35-1.6L6.35-1.6Q9.8-15.1 11.4-22.23 13-29.35 13-31.3L13-31.3Q13-32.25 12.55-32.55 12.1-32.85 10.85-32.85L10.85-32.85Q7.9-32.85 6.15-32.5L6.15-32.5Q6.15-34.65 7.3-34.65L7.3-34.65Q11.6-34.7 13.58-34.8 15.55-34.9 17.75-35.2L17.75-35.2Q18-35.1 18.13-34.6 18.25-34.1 18.2-33.7L18.2-33.7Q17.35-33.6 16.65-33.27 15.95-32.95 15.8-32.4L15.8-32.4Q14.35-27 11.5-12.6L11.5-12.6Q11-10.3 10.48-7.6 9.95-4.9 9.3-2L9.3-2Q9-0.75 8.22-0.25 7.45 0.25 6 0.25L6 0.25 5.05 0.2ZM39.9-14.55Q37.25-16.1 35.4-19.1 33.55-22.1 33.55-25.2L33.55-25.2Q33.55-28.2 35.4-30.68 37.25-33.15 41.02-34.63 44.8-36.1 50.3-36.1L50.3-36.1Q53-36.1 55.15-35.8 57.3-35.5 60.85-34.85L60.85-34.85Q65.09-33.95 67.3-33.95L67.3-33.95Q69.5-33.95 71.37-34.68 73.25-35.4 74.3-37L74.3-37Q73.75-34.6 71.84-33.1 69.95-31.6 66.5-31.6L66.5-31.6Q64.9-31.6 62.65-31.9 60.4-32.2 56.7-32.8L56.7-32.8Q53.1-33.4 50.82-33.7 48.55-34 47-34L47-34Q44.15-34 41.7-32.93 39.25-31.85 37.75-29.83 36.25-27.8 36.25-25.1L36.25-25.1Q36.25-22.3 37.95-19.98 39.65-17.65 43.1-15.2L43.1-15.2 42.9-14.95Q41.85-14.95 41.25-14.88 40.65-14.8 39.9-14.55L39.9-14.55ZM38.15 0.75Q36.05 0.75 33.8 0.33 31.55-0.1 30.25-0.7L30.25-0.7Q29.7-2.2 29.4-3.45L29.4-3.45 29.85-3.95Q31.65-2.2 33.42-1.45 35.2-0.7 37.85-0.7L37.85-0.7Q40.75-0.7 43-1.75 45.25-2.8 47.1-5.68 48.95-8.55 50.25-13.8L50.25-13.8 50.9-16.5Q52.6-24.4 54.1-29.45L54.1-29.45Q54.9-30.4 55.75-30.9 56.6-31.4 57.95-32L57.95-32 58.4-31.85Q57.2-30.25 56.1-26.38 55-22.5 53.75-16.9L53.75-16.9 53-13.7Q49.4 0.75 38.15 0.75L38.15 0.75ZM85.79 0.6Q82.89 0.6 80.09-0.25 77.29-1.1 76.79-2.1L76.79-2.1Q77.04-3.3 77.24-5.38 77.44-7.45 77.44-8.55L77.44-8.55Q77.84-8.9 78.59-8.9L78.59-8.9Q78.59-6.05 79.22-4.45 79.84-2.85 81.29-2.13 82.74-1.4 85.39-1.4L85.39-1.4Q90.09-1.4 93.22-3.38 96.34-5.35 96.34-9L96.34-9Q96.34-10.9 95.24-12.78 94.14-14.65 91.34-17.25L91.34-17.25 89.99-18.5Q87.39-20.85 86.17-22.58 84.94-24.3 84.94-26.75L84.94-26.75Q84.94-29.15 86.17-31.13 87.39-33.1 89.67-34.23 91.94-35.35 94.89-35.35L94.89-35.35Q97.79-35.35 99.84-34.35 101.89-33.35 102.49-32L102.49-32Q102.49-30.5 102.04-28.55 101.59-26.6 101.49-26.25L101.49-26.25Q100.84-26.25 100.24-26.45L100.24-26.45 100.39-27.45Q100.49-28.35 100.49-28.9L100.49-28.9Q100.49-31.2 99.27-32.23 98.04-33.25 95.44-33.25L95.44-33.25Q91.79-33.25 89.62-31.6 87.44-29.95 87.44-27.3L87.44-27.3Q87.44-25.25 88.74-23.58 90.04-21.9 92.74-19.5L92.74-19.5 93.79-18.55Q96.99-15.65 98.17-13.85 99.34-12.05 99.34-9.7L99.34-9.7Q99.34-6.3 97.27-3.98 95.19-1.65 92.07-0.53 88.94 0.6 85.79 0.6L85.79 0.6Z" opacity="1" transform="matrix(1,0,0,1,0,0)" fill="#50a060" class="undefined-text-0" data-fill-palette-color="primary" id="text-0"></path></svg></g></svg></g><g transform="matrix(1,0,0,1,0,84.79486627871361)"><svg viewBox="0 0 192 26.719885958660015" height="26.719885958660015" width="192"><g transform="matrix(1,0,0,1,0,0)"><svg width="192" viewBox="0.9500000476837158 -38.349998474121094 280.5699768066406 39.04999923706055" height="26.719885958660015" data-palette-color="#50a060"><path d="M7.3-36L16.3-36 10 0 0.95 0 7.3-36ZM66.09-36L64.69-28.2 52.39-28.2 47.45 0 38.39 0 43.34-28.2 30.99-28.2 32.39-36 66.09-36ZM85.39-10.25L85.39-10.25Q85.39-6.8 90.37-6.8 95.34-6.8 95.34-9.9L95.34-9.9Q95.34-11.55 93.64-12.6 91.94-13.65 89.52-14.35 87.09-15.05 84.67-15.98 82.24-16.9 80.54-18.88 78.84-20.85 78.84-23.8L78.84-23.8Q78.84-36.35 94.99-36.35L94.99-36.35Q100.89-36.35 103.92-34.13 106.94-31.9 106.94-27.95L106.94-27.95Q106.94-26.5 106.57-25.18 106.19-23.85 105.79-23.3L105.79-23.3 105.39-22.7 96.54-22.7Q97.64-23.85 97.64-25.6L97.64-25.6Q97.64-28.85 93.39-28.85L93.39-28.85Q88.04-28.85 88.04-25.45L88.04-25.45Q88.04-23.75 89.74-22.75 91.44-21.75 93.87-21.18 96.29-20.6 98.74-19.75 101.19-18.9 102.89-16.93 104.59-14.95 104.59-11.8L104.59-11.8Q104.59-5.45 100.79-2.38 96.99 0.7 89.09 0.7 81.19 0.7 78.29-2.1L78.29-2.1Q76.14-4.2 76.14-7.9L76.14-7.9Q76.14-9.3 76.44-10.95L76.44-10.95 76.59-11.75 85.59-11.75 85.49-11.15Q85.39-10.65 85.39-10.25ZM123.34-24.75L123.34-24.75Q128.74-24.75 131.49-22.4L131.49-22.4Q133.64-20.55 133.64-17.25L133.64-17.25Q133.64-16.15 133.39-14.85L133.39-14.85 132.34-9Q131.39-3.7 127.91-1.5 124.44 0.7 118.64 0.7 112.84 0.7 110.14-1.5L110.14-1.5Q108.14-3.15 108.14-6.45L108.14-6.45Q108.14-7.6 108.39-9L108.39-9 109.44-14.85Q111.19-24.75 123.34-24.75ZM124.04-10.1L124.69-13.85Q124.79-14.35 124.79-15.13 124.79-15.9 124.14-16.85 123.49-17.8 121.86-17.8 120.24-17.8 119.14-16.73 118.04-15.65 117.74-13.85L117.74-13.85 117.09-10.1Q116.99-9.6 116.99-8.83 116.99-8.05 117.64-7.15 118.29-6.25 119.91-6.25 121.54-6.25 122.64-7.38 123.74-8.5 124.04-10.1L124.04-10.1ZM145.89-7.7L145.89-7.7Q145.89-6.4 147.21-6.4 148.54-6.4 149.44-6.9L149.44-6.9 149.19-1.25Q146.79 0.7 143.79 0.7L143.79 0.7Q139.24 0.7 137.89-1.4L137.89-1.4Q137.04-2.75 137.04-4.35 137.04-5.95 137.24-7.15L137.24-7.15 142.69-37.95 151.19-37.95 145.94-8.3Q145.89-8 145.89-7.7ZM176.63-7.7L176.63-7.7Q176.63-6.4 177.96-6.4 179.28-6.4 180.18-6.9L180.18-6.9 179.93-1.25Q177.53 0.7 174.53 0.7L174.53 0.7Q168.88 0.7 168.38-3.65L168.38-3.65Q165.38 0.7 160.31 0.7 155.23 0.7 153.73-1.6L153.73-1.6Q152.73-3.05 152.73-4.9 152.73-6.75 153.03-8.3L153.03-8.3 155.83-24.05 164.33-24.05 161.98-10.75Q161.83-9.85 161.83-8.95L161.83-8.95Q161.83-6.55 164.53-6.55L164.53-6.55Q166.78-6.55 168.13-8.1L168.13-8.1 170.98-24.05 179.48-24.05 176.68-8.3Q176.63-8 176.63-7.7ZM193.98 0.7L193.98 0.7Q188.18 0.7 185.63-1.9L185.63-1.9Q183.73-3.8 183.73-7L183.73-7Q183.73-8.05 183.93-9.25L183.93-9.25 187.33-28.6 196.48-32.4 195.03-24.05 208.83-24.05 207.58-17 193.78-17 192.78-11.35Q192.58-10.4 192.58-9.65L192.58-9.65Q192.58-6.5 195.58-6.5L195.58-6.5Q197.18-6.5 198.25-7.85 199.33-9.2 199.73-11.45L199.73-11.45 208.03-11.45Q205.93 0.7 193.98 0.7ZM221.28-6.4L221.28-6.4Q222.43-6.4 223.33-6.9L223.33-6.9 223.08-1.25Q220.73 0.7 217.73 0.7L217.73 0.7Q213.18 0.7 211.83-1.4L211.83-1.4Q210.93-2.8 210.93-4.38 210.93-5.95 211.13-7.15L211.13-7.15 214.13-24.05 222.63-24.05 219.83-8.3Q219.78-8 219.78-7.75L219.78-7.75Q219.78-6.4 221.28-6.4ZM215.13-32.2L215.13-32.2Q215.13-35.4 216.55-36.88 217.98-38.35 220.98-38.35L220.98-38.35Q225.18-38.35 225.18-34.65L225.18-34.65Q225.18-31.5 223.75-30.05 222.33-28.6 219.28-28.6L219.28-28.6Q215.13-28.6 215.13-32.2ZM241.33-24.75L241.33-24.75Q246.73-24.75 249.48-22.4L249.48-22.4Q251.63-20.55 251.63-17.25L251.63-17.25Q251.63-16.15 251.38-14.85L251.38-14.85 250.33-9Q249.38-3.7 245.9-1.5 242.43 0.7 236.63 0.7 230.83 0.7 228.13-1.5L228.13-1.5Q226.13-3.15 226.13-6.45L226.13-6.45Q226.13-7.6 226.38-9L226.38-9 227.43-14.85Q229.18-24.75 241.33-24.75ZM242.03-10.1L242.68-13.85Q242.78-14.35 242.78-15.13 242.78-15.9 242.13-16.85 241.47-17.8 239.85-17.8 238.22-17.8 237.13-16.73 236.03-15.65 235.72-13.85L235.72-13.85 235.08-10.1Q234.97-9.6 234.97-8.83 234.97-8.05 235.63-7.15 236.28-6.25 237.9-6.25 239.53-6.25 240.63-7.38 241.72-8.5 242.03-10.1L242.03-10.1ZM270.67-15.35L270.67-15.35Q270.67-17.5 268.6-17.5 266.52-17.5 265.17-15.95L265.17-15.95 262.37 0 253.87 0 258.12-24.05 266.02-24.05 265.47-21.1Q268.42-24.75 272.92-24.75 277.42-24.75 278.77-22.55L278.77-22.55Q279.62-21.15 279.62-19.35 279.62-17.55 279.37-16L279.37-16 278.02-8.3Q277.97-8 277.97-7.75L277.97-7.75Q277.97-6.4 279.47-6.4L279.47-6.4Q280.62-6.4 281.52-6.9L281.52-6.9 281.27-1.25Q278.92 0.7 275.92 0.7L275.92 0.7Q269.12 0.7 269.12-5L269.12-5Q269.12-6 269.32-7.15L269.32-7.15 270.52-13.8Q270.67-14.7 270.67-15.35Z" opacity="1" transform="matrix(1,0,0,1,0,0)" fill="#50a060" class="undefined-text-1" data-fill-palette-color="secondary" id="text-1"></path></svg></g></svg></g></svg></g></svg></g><g></g></svg></g></svg></g></svg></g></svg></g></svg><rect width="320" height="360" fill="none" stroke="none" visibility="hidden"></rect></g></svg></g></svg>